<svg width="250" height="156" viewBox="0 0 250 156" fill="none" xmlns="http://www.w3.org/2000/svg">
<g clip-path="url(#clip0_154_8735)">
<g clip-path="url(#clip1_154_8735)">
<path d="M229.39 14.99C213.04 0.600005 188.85 12.62 189.36 19.28C218.24 16.16 219.02 84.68 180.6 85.77C192.48 89.04 206.58 91.45 222.26 88.15C223.86 87.46 225.43 86.72 226.96 85.94C256.75 70.63 255.81 29.89 229.39 14.99Z" fill="black" stroke="black" stroke-width="1.5" stroke-linecap="round" stroke-linejoin="round"/>
<path d="M180.59 85.77C167.09 81.65 155.39 70.23 147.79 58.08C139.51 59.66 125.19 68.81 127.34 79.03C146.27 97.06 190.98 101.6 222.25 88.15C206.57 91.44 192.47 89.04 180.59 85.77Z" fill="black" stroke="black" stroke-width="1.5" stroke-linecap="round" stroke-linejoin="round"/>
<path d="M45.8501 26.1C68.1701 25.45 86.4801 37.78 100.01 59.66L126.26 32.36C113.93 20.18 96.3101 12.1 78.0701 9.22C75.0001 8.74 49.7501 14.77 45.8401 26.09L45.8501 26.1Z" fill="black" stroke="black" stroke-width="1.5" stroke-linecap="round" stroke-linejoin="round"/>
<path d="M126.27 32.37C113.94 20.19 96.3201 12.11 78.0801 9.23" stroke="black" stroke-width="1.5" stroke-linecap="round" stroke-linejoin="round"/>
<path d="M189.35 19.28C203.98 10.75 217.86 6.67 231.66 16.38C219.75 2.19 167.17 -13.89 126.26 27.24C92.4001 61.71 69.2701 79.24 44.5701 70.92C50.2101 82.2 69.0001 96.14 100.03 89.9C146.1 82.57 158.68 37.15 189.34 19.28H189.35Z" fill="white" stroke="black" stroke-width="1.5" stroke-linecap="round" stroke-linejoin="round"/>
<path d="M185.96 10.69C185.8 10.64 185.64 10.56 185.47 10.56L160.04 10.4" fill="white"/>
<path d="M185.96 10.69C185.8 10.64 185.64 10.56 185.47 10.56L160.04 10.4" stroke="black" stroke-width="1.5" stroke-linecap="round" stroke-linejoin="round"/>
<path d="M111.11 76.22L82.3 75.9" stroke="black" stroke-width="1.5" stroke-linecap="round" stroke-linejoin="round"/>
<path d="M168.62 19.9C168.48 20.89 168.62 21.92 169.03 22.83C167.46 23.09 166.28 23.79 165.33 24.75C165.75 23.77 165.68 22.6 165.15 21.67C166.64 21.42 167.79 20.81 168.62 19.9Z" fill="white" stroke="black" stroke-width="1.5" stroke-linecap="round" stroke-linejoin="round"/>
<path d="M128.7 61.72C128.63 62.67 128.85 63.66 129.32 64.54C127.77 64.79 126.64 65.46 125.76 66.39C126.11 65.45 125.95 64.32 125.35 63.43C126.83 63.19 127.92 62.6 128.7 61.72Z" fill="white" stroke="black" stroke-width="1.5" stroke-linecap="round" stroke-linejoin="round"/>
<path d="M115.85 62.06C115.77 62.99 116.01 63.95 116.51 64.81C114.88 65.06 113.68 65.71 112.76 66.61C113.12 65.69 112.96 64.59 112.33 63.72C113.89 63.48 115.04 62.91 115.86 62.06H115.85Z" fill="white" stroke="black" stroke-width="1.5" stroke-linecap="round" stroke-linejoin="round"/>
<path d="M103.13 61.77C103.06 62.7 103.29 63.66 103.79 64.52C102.16 64.77 100.96 65.42 100.04 66.32C100.41 65.4 100.24 64.3 99.6101 63.43C101.17 63.19 102.32 62.62 103.14 61.77H103.13Z" fill="white" stroke="black" stroke-width="1.5" stroke-linecap="round" stroke-linejoin="round"/>
<path d="M145.47 20.77C145.41 21.64 145.63 22.56 146.12 23.37C144.56 23.69 143.36 24.41 142.38 25.42C142.79 24.42 142.65 23.29 142.03 22.44C143.59 22.16 144.71 21.58 145.47 20.77Z" fill="white" stroke="black" stroke-width="1.5" stroke-linecap="round" stroke-linejoin="round"/>
<path d="M157.18 20.68C157.17 21.56 157.44 22.49 157.97 23.32C156.43 23.66 155.25 24.43 154.3 25.52C154.67 24.46 154.47 23.29 153.8 22.41C155.37 22.11 156.47 21.51 157.17 20.69L157.18 20.68Z" fill="white" stroke="black" stroke-width="1.5" stroke-linecap="round" stroke-linejoin="round"/>
<path d="M157.36 35.21C151.69 41.12 144.45 48.47 140.07 53.19C139.65 53.76 139.71 54.06 140.21 54.1H142.16C143.1 54.14 143.34 53.83 144.26 52.88C149.43 47.42 155.94 40.66 161.46 34.84C161.92 34.37 161.55 34.11 160.82 34.11L159.26 34.15C158.34 34.21 157.96 34.56 157.34 35.21H157.36Z" fill="black" stroke="black" stroke-width="1.5" stroke-linecap="round" stroke-linejoin="round"/>
<path d="M136.6 52.03C140.95 47.27 146.62 41.41 152.24 35.48C153.27 34.51 153.15 34.1 152.31 34.1H150.83C150.01 34.1 149.12 35.01 148.46 35.83C143.47 40.99 136.67 47.63 132.38 52.38C131.37 53.38 131.25 53.85 132.05 53.78H133.85C134.65 53.83 135.57 53.24 136.61 52.03H136.6Z" fill="black" stroke="black" stroke-width="1.5" stroke-linecap="round" stroke-linejoin="round"/>
<path d="M137.76 36.02C133.44 40.57 125.79 48.26 121.82 52.55C120.84 53.79 121.18 54.22 122.45 54.22H124.64C126.03 54.27 126.55 53.79 127.96 52.38C132 48.08 139.79 40.39 144.19 35.83C145.16 34.83 145.35 34.15 144 34.1H141.71C140.16 34.04 138.86 34.75 137.75 36.02H137.76Z" fill="black" stroke="black" stroke-width="1.5" stroke-linecap="round" stroke-linejoin="round"/>
<path d="M109.51 51.66C113.43 47.54 122.01 39.72 126.49 35.16C127.26 34.47 127.86 33.95 128.75 34.1C129.46 34.21 129.13 34.36 128.25 35.16C128.25 35.16 115.6 47.55 111.65 51.66C110.58 52.77 110.27 53.18 109.42 53.18C109.38 53.18 108.9 53.16 108.86 53.16C108.29 53.11 108.67 52.49 109.51 51.66Z" fill="black" stroke="black" stroke-width="1.5" stroke-linecap="round" stroke-linejoin="round"/>
<path d="M134.33 35.16C129.76 39.72 121.16 48.45 117.17 52.55C116.42 53.33 116.12 53.57 114.97 53.57C114.26 53.57 114.26 53.33 114.99 52.55C118.96 48.45 128.24 39.72 132.8 35.16C133.28 34.63 133.51 34.47 134.21 34.47C135.23 34.47 134.71 34.77 134.33 35.16Z" fill="black" stroke="black" stroke-width="1.5" stroke-linecap="round" stroke-linejoin="round"/>
<path d="M46.09 136.05C78.97 130.87 122.66 129.84 158.83 130.85C212.81 132.7 233.21 140.6 207.36 149.32C188.71 154.99 169.03 155.34 128.66 154.8C98.29 155.37 62.63 153.81 39.67 149.58C28.11 147.23 29.62 138.66 46.08 136.05H46.09Z" fill="black" stroke="black" stroke-width="1.5" stroke-linecap="round" stroke-linejoin="round"/>
<path d="M93.8101 90.98C59.0701 91.45 38.2101 67.82 40.2501 47.25C42.4201 25.41 64.4601 2.12001 100.84 15.72C87.2601 7.03001 60.9601 -0.949994 32.8901 7.45001C17.8001 11.97 2.9101 27.55 0.980099 44.14C-1.0099 61.23 9.8501 83.53 36.8901 91.52C50.8001 95 76.5801 94.01 93.8101 90.98Z" fill="white"/>
<path d="M93.8101 90.98C59.0701 91.45 38.2101 67.82 40.2501 47.25C42.4201 25.41 64.4601 2.12001 100.84 15.72C87.2601 7.03001 60.9601 -0.949994 32.8901 7.45001C17.8001 11.97 2.9101 27.55 0.980099 44.14C-1.0099 61.23 9.8501 83.53 36.8901 91.52C50.8001 95 76.5801 94.01 93.8101 90.98Z" stroke="black" stroke-width="1.5" stroke-linecap="round" stroke-linejoin="round"/>
<path d="M38.06 27.25C31.56 26.85 24.96 26.97 16.28 26.51L38.06 27.25Z" fill="white"/>
<path d="M38.06 27.25C31.56 26.85 24.96 26.97 16.28 26.51" stroke="black" stroke-width="1.5" stroke-linecap="round" stroke-linejoin="round"/>
<path d="M9.91992 40.63L19.9399 40.3C24.6799 40.14 29.0799 40.67 33.8199 40.51" fill="white"/>
<path d="M9.91992 40.63L19.9399 40.3C24.6799 40.14 29.0799 40.67 33.8199 40.51" stroke="black" stroke-width="1.5" stroke-linecap="round" stroke-linejoin="round"/>
<path d="M17.1899 70.28L39.0399 70.05" stroke="black" stroke-width="1.5" stroke-linecap="round" stroke-linejoin="round"/>
<path d="M32.8999 84.21H52.7899" stroke="black" stroke-width="1.5" stroke-linecap="round" stroke-linejoin="round"/>
<path d="M47.7999 4.42C60.0599 3.05 71.5499 4.47 81.2599 7.21L77.1199 6.15C68.8799 4.71 59.2699 8.31 52.5399 13.7C50.2899 15.73 47.1999 16.9 45.1099 16.8L26.7699 16.6C24.2499 16.6 24.8599 15.39 26.7699 13.68C30.1099 10.55 37.5799 5.96 46.5799 4.49L47.7999 4.42Z" fill="#00D64F" stroke="black" stroke-width="1.5" stroke-linecap="round" stroke-linejoin="round"/>
<path d="M231.67 16.38C239.9 21.35 245.93 29.9 248.23 40.32C249.25 43.94 249.62 51.51 248.6 57.21C246.6 68.41 239.92 79.23 226.95 85.95" stroke="black" stroke-width="1.5" stroke-linecap="round" stroke-linejoin="round"/>
<path d="M233.16 82.97C232.17 83.38 231.13 83.8 230.02 84.22C219.34 88.46 199.71 88.4 184.87 84.58C183.61 84.8 182.29 84.94 180.9 85C189.03 87.57 199.11 88.9 208.56 88.9C215.33 88.9 221.75 88.2 226.92 86.8C227.05 86.74 227.18 86.67 227.31 86.61C229.39 85.54 231.34 84.31 233.17 82.97H233.16Z" fill="white"/>
</g>
</g>
<defs>
<clipPath id="clip0_154_8735">
<rect width="250" height="156" fill="white"/>
</clipPath>
<clipPath id="clip1_154_8735">
<rect width="250" height="250" fill="white" transform="translate(0 -47)"/>
</clipPath>
</defs>
</svg>
