<svg width="250" height="250" viewBox="0 0 250 250" fill="none" xmlns="http://www.w3.org/2000/svg">
<g clip-path="url(#clip0_154_4893)">
<path d="M67.7199 152.58C67.7099 152 68.1599 151.51 68.7299 151.44C71.5599 151.1 74.3299 150.32 76.9199 149.13C80.2999 147.57 83.2299 145.01 84.2599 141.52C84.4299 140.94 85.0399 140.59 85.6299 140.73C86.8699 141.01 88.1899 141.57 89.0699 142.39C89.4199 142.72 89.5299 143.24 89.3399 143.68C87.6999 147.46 85.1499 150.81 81.6199 152.93C78.0899 155.05 74.0999 156.29 70.0499 157.06C69.5799 157.15 69.1099 156.94 68.8599 156.53C68.1799 155.43 67.7499 153.92 67.7199 152.6V152.58Z" fill="white" stroke="black" stroke-width="1.5" stroke-linecap="round" stroke-linejoin="round"/>
<path d="M45.11 165.61C68.95 165.61 73.86 69.0601 47.83 69.0601C26.54 69.0601 2.43001 79.1501 0.820013 114.25C-0.849987 150.72 26.33 165.61 45.11 165.61Z" fill="white" stroke="black" stroke-width="1.5" stroke-linecap="round" stroke-linejoin="round"/>
<path d="M27.4502 108.66C27.7502 109.71 28.2702 110.78 29.2202 111.32C29.9102 111.71 30.7902 111.75 31.5102 111.42C32.2302 111.1 32.7902 110.43 32.9702 109.65C33.1402 108.93 32.9802 108.15 32.6602 107.49C32.3402 106.83 31.8502 106.25 31.3302 105.71C30.4702 104.82 29.5202 104.02 28.5402 103.26C28.0702 102.89 27.4102 102.54 26.9502 103.14C26.6302 103.56 26.8002 104.23 26.8402 104.73C26.9302 106.05 27.0702 107.38 27.4402 108.66H27.4502Z" fill="#00D64F" stroke="black" stroke-width="1.5" stroke-linecap="round" stroke-linejoin="round"/>
<path d="M11.3499 115.67C10.0199 114.59 9.02991 112.95 9.15991 111.24C9.22991 110.29 9.70991 109.32 10.5499 108.88C11.5799 108.35 12.8999 108.75 13.7399 109.56C14.5799 110.36 15.0299 111.48 15.4099 112.57C15.7199 113.47 15.9899 114.38 16.2199 115.29C16.3699 115.9 16.5099 116.52 16.5799 117.14C16.6099 117.36 16.6199 117.59 16.5199 117.79C16.0399 118.75 11.9499 116.16 11.3399 115.66L11.3499 115.67Z" fill="#00D64F" stroke="black" stroke-width="1.5" stroke-linecap="round" stroke-linejoin="round"/>
<path d="M27.7199 129.96C28.6399 129.78 29.5899 129.42 30.1299 128.65C30.5499 128.04 30.6499 127.24 30.4499 126.52C30.2499 125.8 29.7699 125.19 29.1699 124.76C28.4499 124.25 27.5099 124 26.6499 124.2C26.1499 124.32 25.6999 124.58 25.2599 124.86C23.9099 125.71 22.6399 126.7 21.4799 127.8C21.2599 128.01 21.0299 128.24 20.9499 128.54C20.4699 130.32 26.7599 130.15 27.7299 129.96H27.7199Z" fill="#00D64F" stroke="black" stroke-width="1.5" stroke-linecap="round" stroke-linejoin="round"/>
<path d="M20.6799 92.73C20.1099 92.45 19.5699 92.09 19.1599 91.6C18.5199 90.82 18.2899 89.75 18.4499 88.76C18.5799 87.96 18.9899 87.16 19.7099 86.79C19.9899 86.65 20.2899 86.57 20.5999 86.54C21.8299 86.43 23.0499 87.01 23.9599 87.85C24.8699 88.69 25.5299 89.75 26.1799 90.81C26.3699 91.11 26.5499 91.42 26.7399 91.72C27.0599 92.24 27.4099 92.91 27.0199 93.5C26.6999 94 26.1499 93.88 25.6199 93.84C23.9299 93.71 22.2099 93.49 20.6699 92.73H20.6799Z" fill="#00D64F" stroke="black" stroke-width="1.5" stroke-linecap="round" stroke-linejoin="round"/>
<path d="M38.7002 91.48C37.8202 90.68 37.0002 89.71 36.8502 88.53C36.7902 88.04 36.8502 87.55 36.9702 87.07C37.2002 86.18 37.7002 85.34 38.4502 84.81C39.2002 84.28 40.2202 84.09 41.0702 84.43C42.3202 84.93 42.9102 86.35 43.2802 87.65C43.7802 89.39 44.1402 91.17 44.3402 92.97C44.3902 93.39 44.4102 94.2 43.9202 94.4C43.4802 94.58 42.6402 94.04 42.2302 93.84C40.9502 93.23 39.7502 92.43 38.7002 91.47V91.48Z" fill="#00D64F" stroke="black" stroke-width="1.5" stroke-linecap="round" stroke-linejoin="round"/>
<path d="M40.3902 118.77C39.8702 119.62 39.4902 120.58 39.5002 121.57C39.5102 122.56 39.9702 123.59 40.8202 124.1C41.6702 124.61 42.7902 124.53 43.6602 124.06C44.5302 123.59 45.1702 122.77 45.6002 121.87C46.0302 120.97 46.2702 120.01 46.5002 119.05C46.6002 118.64 46.7002 118.23 46.8002 117.83C47.2602 115.95 46.4802 114.28 44.3902 115.23C42.7502 115.97 41.3302 117.24 40.3902 118.78V118.77Z" fill="#00D64F" stroke="black" stroke-width="1.5" stroke-linecap="round" stroke-linejoin="round"/>
<path d="M35.0302 145.63C34.0102 144.85 33.1002 143.82 32.8602 142.56C32.7302 141.82 32.8402 141.06 33.1102 140.36C33.5602 139.2 34.5602 138.17 35.8002 138.08C36.7102 138.02 37.5902 138.47 38.2302 139.11C38.8702 139.75 39.2902 140.58 39.6502 141.41C40.3902 143.1 40.9302 144.89 41.2402 146.71C41.5402 148.41 40.4002 148.32 39.2202 147.85C37.7502 147.26 36.2902 146.6 35.0202 145.63H35.0302Z" fill="#00D64F" stroke="black" stroke-width="1.5" stroke-linecap="round" stroke-linejoin="round"/>
<path d="M16.7698 145.38C17.2998 146 17.9598 146.55 18.7498 146.74C19.9798 147.04 21.3598 146.3 21.8798 145.15C22.3998 144 22.1098 142.54 21.2498 141.61C20.7798 141.1 20.1798 140.74 19.5798 140.4C18.6498 139.88 17.6898 139.4 16.7098 138.97C16.1298 138.71 14.7098 137.84 14.0998 138.35C13.2298 139.08 14.7798 142.04 15.1398 142.81C15.5698 143.73 16.0898 144.61 16.7598 145.37L16.7698 145.38Z" fill="#00D64F" stroke="black" stroke-width="1.5" stroke-linecap="round" stroke-linejoin="round"/>
<path d="M76.5902 127.13C78.2502 121.43 84.2002 113.76 89.3502 110.7C89.7502 110.46 89.8902 109.94 89.6602 109.54C89.2602 108.84 88.6402 107.78 88.0502 106.86C87.8002 106.47 87.2902 106.35 86.8902 106.58C79.2702 110.98 73.2002 118.99 71.3202 125.73C71.2002 126.17 71.4302 126.63 71.8602 126.77C72.7502 127.08 74.2802 127.56 75.6602 127.73C76.0802 127.78 76.4702 127.53 76.5902 127.12V127.13Z" fill="white" stroke="black" stroke-width="1.5" stroke-linecap="round" stroke-linejoin="round"/>
<path d="M73.27 121.08L77.9 123.6" stroke="black" stroke-width="1.5" stroke-linecap="round" stroke-linejoin="round"/>
<path d="M202.66 123.05C202.97 121 204.55 119.24 204.59 117.18C204.63 114.77 202.56 112.78 202.28 110.39C202 108 203.54 105.71 203.51 103.31C203.47 100.44 201.22 98.01 200.84 95.16C200.59 93.22 201.23 91.26 201.15 89.31C201.06 87.1 197.61 83.32 196.47 81.42C193.33 76.21 196.58 73.12 194.06 69.59C191.35 65.8 183.24 66.16 176.88 65.9C182.51 65.9 183.94 70.61 184.44 72.09C185.36 74.79 187.99 76.84 188.27 79.67C188.47 81.74 187.33 83.73 187.23 85.81C187.04 89.58 190.13 92.63 191.54 96.13C192.49 98.5 192.67 101.17 192.02 103.65C191.67 104.99 191.09 106.31 191.06 107.69C191 110.96 194.03 113.61 194.27 116.88C194.54 120.65 191.07 123.78 190.65 127.53C190.18 131.74 193.6 136.12 191.77 139.97C190.97 141.66 189.27 142.84 188.55 144.56C187.16 147.88 189.79 152.02 187.9 155.1C186.97 156.62 185.16 157.41 183.99 158.77C182.79 160.16 180.46 167.02 173.97 167.02C173.97 167.02 182.81 167.13 185.09 167.28C187.37 167.43 189.78 166.8 191.38 165.2C193.19 163.38 193.06 162.76 194.9 160.97C196.03 159.87 197.6 159.17 198.38 157.82C199.42 156.01 198.29 153.02 198.69 150.84C199.21 147.99 202.24 146.29 202.49 143.41C202.69 140.99 200.99 138.65 201.49 136.27C201.84 134.61 203.22 133.3 203.66 131.66C204.42 128.84 202.25 125.95 202.68 123.07L202.66 123.05Z" fill="white" stroke="black" stroke-width="1.5" stroke-linecap="round" stroke-linejoin="round"/>
<path d="M158.62 81.34C158.36 83.6 155.88 84.96 155.12 87.1C154.24 89.59 155.91 92.3 155.65 94.93C155.37 97.79 152.85 100.22 153.12 103.09C153.28 104.83 154.47 106.35 154.67 108.09C155.03 111.3 151.96 114.28 152.68 117.43C153.03 118.95 154.21 120.15 154.66 121.64C155.7 125.05 152.71 128.72 153.73 132.14C154.26 133.9 155.77 135.21 156.39 136.94C157.66 140.5 154.84 144.64 156.32 148.11C157.14 150.02 159.08 151.22 160.19 152.98C161.79 155.52 161.46 158.83 162.64 161.58C164.35 165.56 165.66 167.02 173.95 167.02C180.45 167.02 182.78 160.16 183.97 158.77C185.14 157.41 186.95 156.62 187.88 155.1C189.77 152.02 187.14 147.88 188.53 144.56C189.25 142.84 190.95 141.66 191.75 139.97C193.58 136.12 190.16 131.75 190.63 127.53C191.05 123.77 194.52 120.64 194.25 116.88C194.02 113.62 190.99 110.96 191.04 107.69C191.06 106.3 191.65 104.99 192 103.65C192.64 101.17 192.47 98.5 191.52 96.13C190.11 92.63 187.02 89.58 187.21 85.81C187.31 83.73 188.45 81.74 188.25 79.67C187.98 76.84 185.35 74.78 184.42 72.09C183.91 70.6 182.48 65.9 176.86 65.9C171.24 65.9 169.71 65.98 168.95 66.31C166.85 67.21 166.81 69.71 165.36 71.47C163.96 73.17 161.64 73.89 160.28 75.62C159.03 77.19 158.85 79.35 158.62 81.34Z" fill="black" stroke="black" stroke-width="1.5" stroke-linecap="round" stroke-linejoin="round"/>
<path d="M86.3299 79.42C85.7199 79.21 85.0699 79.52 84.8199 80.11C81.6099 88.02 75.4499 91.06 71.1199 92.52C70.5099 92.73 70.1899 93.38 70.3999 93.99L71.5799 97.38C71.7899 97.97 72.4299 98.3 73.0299 98.1C80.2199 95.71 89.4699 90.2 90.6999 82.11C90.7899 81.49 90.4399 80.88 89.8399 80.67C88.7299 80.29 87.4399 79.79 86.3299 79.41V79.42Z" fill="white" stroke="black" stroke-width="1.5" stroke-linecap="round" stroke-linejoin="round"/>
<path d="M89.6501 85.54L83.3101 83.16" stroke="black" stroke-width="1.5" stroke-linecap="round" stroke-linejoin="round"/>
<path d="M123.23 188.49C72.8401 188.47 26.1301 188.99 22.4701 193.53C19.0501 197.77 64.5901 201.22 117.33 201.22C136.72 201.22 229.62 201.22 231.68 195.94C233.96 190.09 156.82 188.5 123.23 188.49Z" fill="black" stroke="black" stroke-width="1.5" stroke-miterlimit="10"/>
<path d="M95.8001 60.72C99.6301 81.03 102.37 134.05 95.8501 165.69C95.6301 166.78 96.3301 167.84 97.4201 168.04C108.34 170.14 133.75 174.02 140.88 175.1C141.94 175.26 142.93 174.55 143.13 173.5C150.62 132.75 146.74 71.26 139.63 50.14C139.3 49.16 138.28 48.59 137.27 48.84C126.92 51.42 103.98 56.85 97.3001 58.43C96.2701 58.67 95.6101 59.68 95.8101 60.72H95.8001Z" fill="#00D64F" stroke="black" stroke-width="1.5" stroke-linecap="round" stroke-linejoin="round"/>
<path d="M131.82 164.84C132.75 162.14 134.92 159.61 137.41 158.4C137.83 158.2 138.13 157.8 138.18 157.34C141.89 126.03 141.07 94.16 136.33 62.99C136.23 62.34 135.68 61.86 135.03 61.86C133.14 61.86 131.24 60.93 130.11 59.44C129.5 58.63 128.46 58.27 127.47 58.5C121.42 59.9 115.34 61.38 109.29 62.78C108.3 63.01 107.55 63.79 107.33 64.79C106.84 67 105.16 68.96 103.03 69.73C102.44 69.94 102.1 70.55 102.19 71.17C106.18 99.08 106.42 127.56 102.59 155.49C102.51 156.1 102.84 156.69 103.41 156.91C104.21 157.23 104.94 157.97 105.51 158.61C105.93 159.08 106.25 159.63 106.45 160.23C106.64 160.78 106.81 161.33 106.96 161.89C107.23 162.9 108.07 163.66 109.11 163.81C115.49 164.72 122.62 165.98 129.07 166.6C130.28 166.72 131.43 166.01 131.83 164.87L131.82 164.84Z" stroke="black" stroke-width="1.5" stroke-linecap="round" stroke-linejoin="round"/>
<path d="M105.32 112.08C105.01 129.32 141.41 129.33 140.49 112.69C139.73 98.99 105.54 99.82 105.32 112.08Z" stroke="black" stroke-width="1.5" stroke-linecap="round" stroke-linejoin="round"/>
<path d="M114.9 108.38C113.55 109.91 112.89 112.92 113.44 114.88C113.99 116.85 116.85 118.33 118.75 117.58C119.93 117.12 120.7 115.98 121.21 114.82C121.76 113.57 122.8 111.43 123.63 110.34C124.85 108.75 126.46 108.03 128.4 108.52C130.34 109.02 131.91 110.68 132.35 112.63C132.79 114.58 132.12 116.73 130.68 118.12" stroke="black" stroke-width="1.5" stroke-linecap="round" stroke-linejoin="round"/>
<path d="M132.47 113.64C133.54 113.64 134.63 113.64 135.73 113.64" stroke="black" stroke-width="1.5" stroke-linecap="round" stroke-linejoin="round"/>
<path d="M110.7 113.1C111.55 113.13 112.4 113.16 113.24 113.19" stroke="black" stroke-width="1.5" stroke-linecap="round" stroke-linejoin="round"/>
<path d="M117.01 139.26C115.97 140.54 115.53 142.35 116.13 143.89C116.88 145.81 119.21 146.88 121.22 146.42C123.23 145.96 124.81 144.17 125.26 142.16C126.37 137.23 119.6 136.07 117 139.26H117.01Z" stroke="black" stroke-width="1.5" stroke-linecap="round" stroke-linejoin="round"/>
<path d="M122.49 81.8199C119.91 81.9399 117.93 84.5399 117.86 87.1199C117.83 87.9899 118 88.8999 118.56 89.5599C119.26 90.3799 120.44 90.6299 121.52 90.5499C123.76 90.3799 125.92 88.7499 126.33 86.5399C126.74 84.3299 124.98 81.8599 122.73 81.8599" stroke="black" stroke-width="1.5" stroke-linecap="round" stroke-linejoin="round"/>
<path d="M213.62 69.56C213.24 69.53 212.87 69.5 212.5 69.47C206.24 69.06 202.23 75.22 199.71 83.47C200.48 85.33 201.08 87.65 201.14 89.3C201.22 91.25 200.58 93.21 200.83 95.15C201.2 98 203.46 100.43 203.5 103.3C203.53 105.71 201.99 107.99 202.27 110.38C202.55 112.77 204.62 114.76 204.58 117.17C204.55 119.24 202.96 121 202.65 123.04C202.22 125.92 204.39 128.81 203.63 131.63C203.19 133.27 201.82 134.58 201.46 136.24C200.96 138.62 202.66 140.96 202.46 143.38C202.25 145.86 200.12 147.78 199.19 150.09C201.24 158.93 204.46 165.83 209.49 165.7C209.95 165.69 210.44 165.66 210.94 165.61C226.37 162.02 230.38 72.71 213.61 69.55L213.62 69.56Z" fill="#00D64F" stroke="black" stroke-width="1.5" stroke-linecap="round" stroke-linejoin="round"/>
<path d="M82.5898 144.84L87.3198 147.37" stroke="black" stroke-width="1.5" stroke-linecap="round" stroke-linejoin="round"/>
<path d="M249.25 116.11C248.95 78.9699 229.39 70.9099 213.64 69.5699C230.39 72.7699 226.39 161.98 210.98 165.62C223.73 164.49 249.55 152.69 249.25 116.11Z" fill="white" stroke="black" stroke-width="1.5" stroke-linecap="round" stroke-linejoin="round"/>
</g>
<defs>
<clipPath id="clip0_154_4893">
<rect width="250" height="250" fill="white"/>
</clipPath>
</defs>
</svg>
