<svg width="250" height="250" viewBox="0 0 250 250" fill="none" xmlns="http://www.w3.org/2000/svg">
<g clip-path="url(#clip0_154_4897)">
<path d="M84.1902 236.79C57.6602 224.8 11.1502 198.72 5.49023 194.95C-0.169774 191.18 -1.78977 184.58 20.0802 184.27C37.0102 184.03 64.9302 183.03 76.6902 182.59C79.7202 182.48 82.2602 184.84 82.3702 187.87L84.1902 236.8V236.79Z" fill="black" stroke="black" stroke-width="1.5" stroke-linecap="round" stroke-linejoin="round"/>
<path d="M176.91 52.3C169.21 35.02 159.71 10.94 139.01 9.66001C120.78 8.53001 118.15 23.23 105.58 25.12C96.8299 26.43 82.4799 16.79 68.9699 23.23C55.4599 29.67 48.2299 44.6 61.2699 71.78L131.81 75.97L176.9 52.3H176.91Z" fill="#00D64F" stroke="black" stroke-width="1.5" stroke-linecap="round" stroke-linejoin="round"/>
<path d="M174.94 47.85C168.66 29.09 56.25 49.45 58.89 66.41L61.27 71.78L131.81 75.97L176.9 52.3L174.93 47.85H174.94Z" fill="white" stroke="black" stroke-width="1.5" stroke-linecap="round" stroke-linejoin="round"/>
<path d="M245.99 61.12C225.15 3.91 172.61 58.13 131.82 64.66C105.63 68.85 83.3998 66.24 57.2398 64.02C37.5498 62.35 18.6898 74.61 20.5398 102.36L245.99 61.11V61.12Z" fill="#00D64F" stroke="black" stroke-width="1.5" stroke-linecap="round" stroke-linejoin="round"/>
<path d="M131.82 75.97C172.61 69.44 228.75 13.54 245.99 61.12C257.2 92.05 224.67 138.71 145.65 156.41C106.1 165.27 22.0699 153.38 20.5399 102.37C20.0899 87.18 34.6599 73.67 57.2399 75.34C83.4199 77.28 105.63 80.17 131.82 75.98V75.97Z" fill="black" stroke="black" stroke-width="1.5" stroke-linecap="round" stroke-linejoin="round"/>
<path d="M190.66 79.22C193.07 78.84 195.49 79.9 196.83 81.94C225.86 126.07 204.12 149.71 200.32 177.99C198.12 194.33 203.53 210.67 206.05 221.16C206.78 224.21 204.69 227.22 201.57 227.6L98.1199 240.31C95.9999 240.57 93.8499 240.32 91.8399 239.59L84.1899 236.8C81.7799 235.92 79.8399 234.09 78.7899 231.75C62.3199 195.15 84.4099 165.6 84.3699 143.11C84.3499 131.45 76.9899 115.86 73.4099 108.96C72.3199 106.86 72.8299 104.28 74.6499 102.75L80.2899 98.01C81.5299 96.97 83.0299 96.28 84.6199 96.03L190.67 79.22H190.66Z" fill="white" stroke="black" stroke-width="1.5" stroke-linecap="round" stroke-linejoin="round"/>
<path d="M82.1699 97.23C82.1699 97.23 99.3599 124.48 99.3599 146.69C99.3599 169.94 75.1899 198.56 95.2999 240.35" stroke="black" stroke-width="1.5" stroke-linecap="round" stroke-linejoin="round"/>
<path d="M97.4402 99.12C97.4402 99.12 180.99 85.45 185.39 84.98C189.79 84.51 190.89 83.72 194.5 92.05C198.11 100.38 200.72 107.66 202.04 110.75C203.45 114.05 203.36 116.25 195.98 117.82C189.02 119.3 117.67 131.49 113.75 131.8C109.83 132.11 108.09 133.58 104.95 125.31C101.81 117.04 97.4102 105.72 96.6202 104.15C95.8302 102.58 94.2702 99.63 97.4402 99.12Z" fill="black" stroke="black" stroke-width="1.5" stroke-linecap="round" stroke-linejoin="round"/>
<path d="M110.03 168.56C107.25 168.87 105.89 168.72 105.05 172.23C104.21 175.74 102.96 181.34 102.69 182.55C102.43 183.75 102.38 185.9 105.83 185.59C109.28 185.28 117.4 183.6 118.35 183.39C119.3 183.18 120.76 183.39 121.6 179.46C122.44 175.53 123.59 170.35 123.54 169.25C123.49 168.15 122.96 166.74 118.77 167.26C114.58 167.78 110.02 168.57 110.02 168.57L110.03 168.56Z" stroke="black" stroke-width="1.5" stroke-linecap="round" stroke-linejoin="round"/>
<path d="M135.64 164.31C133.55 164.73 132.13 164.68 131.08 167.87C130.03 171.06 128.83 176.56 128.46 177.72C128.09 178.88 128.2 181.49 131.24 181.23C134.28 180.97 141.66 179.5 142.6 179.34C143.54 179.18 145.48 178.4 146.06 175.94C146.64 173.48 148.63 166.88 148.84 165.73C149.05 164.58 148.21 162.06 145.8 162.43C143.39 162.8 135.64 164.32 135.64 164.32V164.31Z" stroke="black" stroke-width="1.5" stroke-linecap="round" stroke-linejoin="round"/>
<path d="M160.26 160.12C158.13 160.59 157.48 160.12 156.7 163.31C155.92 166.5 154.61 172.74 154.29 173.84C153.97 174.94 153.09 177.14 156.28 176.67C159.47 176.2 165.45 175.2 166.96 174.78C168.48 174.36 169.74 173.94 170.15 171.32C170.56 168.7 171.83 162.52 171.98 161.06C172.13 159.6 171.98 157.66 168.79 158.23C165.6 158.81 160.25 160.12 160.25 160.12H160.26Z" stroke="black" stroke-width="1.5" stroke-linecap="round" stroke-linejoin="round"/>
<path d="M184.03 155.74C181.83 156.16 180.31 156.25 179.58 159.39C178.85 162.53 177.17 169.34 176.86 170.33C176.55 171.32 176.7 173.31 180.16 172.79C183.62 172.27 190.32 170.59 191.26 170.33C192.2 170.07 192.99 170.4 193.72 167.43C194.45 164.46 195.87 157.55 196.08 156.14C196.29 154.73 195.71 153.21 192.42 154.14C189.15 155.07 184.03 155.73 184.03 155.73V155.74Z" stroke="black" stroke-width="1.5" stroke-linecap="round" stroke-linejoin="round"/>
<path d="M103.3 193.46C100.88 193.85 99.5802 193.85 99.3602 197.31C99.1402 200.77 99.1902 204.85 99.3602 206.19C99.5302 207.53 100.24 208.78 103.7 208.31C107.16 207.84 113.99 207.13 115.01 206.9C116.03 206.67 117.6 206.51 117.84 203.6C118.08 200.69 117.91 196.23 117.92 195.12C117.93 192.84 116.98 191.74 113.52 192.06C110.06 192.37 105.04 193.19 103.31 193.47L103.3 193.46Z" stroke="black" stroke-width="1.5" stroke-linecap="round" stroke-linejoin="round"/>
<path d="M128.32 189.92C126.87 190.23 124.99 190 124.83 193.22C124.67 196.44 124.83 200.53 124.83 201.55C124.83 202.57 124.36 205.08 127.97 204.38C131.58 203.68 138.89 202.57 139.99 202.26C141.09 201.95 142.5 202.5 142.58 199.2C142.66 195.9 143.05 191.11 142.97 189.93C142.89 188.75 141.79 187.42 139.12 188.12C136.45 188.82 128.31 189.93 128.31 189.93L128.32 189.92Z" stroke="black" stroke-width="1.5" stroke-linecap="round" stroke-linejoin="round"/>
<path d="M153.93 185.29C152.01 185.6 150.83 185.76 150.59 188.51C150.35 191.26 150.2 196.44 150.12 197.39C150.04 198.34 149.65 199.98 153.11 199.43C156.57 198.88 162.85 197.7 164.19 197.39C165.53 197.08 166.55 196.84 166.86 193.78C167.17 190.72 167.41 186.63 167.49 185.3C167.57 183.97 166.23 182.79 163.64 183.34C161.05 183.89 153.94 185.3 153.94 185.3L153.93 185.29Z" stroke="black" stroke-width="1.5" stroke-linecap="round" stroke-linejoin="round"/>
<path d="M104.06 214.12C101.34 214.54 99.6601 215.69 100.18 218.94C100.7 222.19 101.66 226.48 102.07 227.84C102.48 229.2 103.32 231.19 107.09 230.56C110.86 229.93 116.98 228.78 117.95 228.47C118.92 228.16 121.12 227.63 120.49 224.8C119.86 221.97 118.6 215.27 118.4 214.12C118.2 212.97 117.14 212.13 113.79 212.65C110.44 213.17 104.05 214.12 104.05 214.12H104.06Z" stroke="black" stroke-width="1.5" stroke-linecap="round" stroke-linejoin="round"/>
<path d="M128.32 210.76C125.85 211.07 124.3 211.7 124.76 214.32C125.22 216.94 126 222.28 126.5 223.54C127 224.8 127.53 226.79 131.51 226.26C135.49 225.74 141.06 225.32 142.99 224.79C144.92 224.26 146.8 223.74 146.07 220.6C145.34 217.46 144.29 211.91 144.18 210.75C144.08 209.6 142.61 208.45 139.26 208.97C135.91 209.49 128.32 210.75 128.32 210.75V210.76Z" stroke="black" stroke-width="1.5" stroke-linecap="round" stroke-linejoin="round"/>
<path d="M153.93 206.26C151.2 206.57 150.78 207.73 151.09 210.03C151.4 212.33 152.16 217.78 152.46 219.04C152.76 220.3 153.6 222.5 156.53 222.18C159.46 221.86 166.17 220.82 167.48 220.61C168.79 220.4 170.88 220.4 170.15 216.63C169.42 212.86 168.68 207.41 168.37 206.26C168.06 205.11 166.69 203.99 162.98 204.5C159.26 205 153.93 206.26 153.93 206.26Z" stroke="black" stroke-width="1.5" stroke-linecap="round" stroke-linejoin="round"/>
<path d="M175.08 183.85C174.54 188.73 175.81 210.98 177.38 215.9C178.53 219.04 180.21 218.41 183.14 218.31C186.07 218.21 191.1 217.16 192.25 217.05C193.4 216.94 195.08 216.52 194.14 212.49C193.2 208.46 189.53 193.9 190.47 182.69C190.78 179.86 190.14 178.29 186.43 179.02C182.72 179.75 178.43 180.59 177.69 180.8C176.95 181.01 175.27 182.07 175.07 183.84L175.08 183.85Z" stroke="black" stroke-width="1.5" stroke-linecap="round" stroke-linejoin="round"/>
<path d="M114.85 140.59C112.65 140.75 111.39 141.22 110.77 145.77C110.14 150.33 110.14 153.47 109.83 155.04C109.52 156.61 110.62 158.86 114.86 158.13C119.1 157.4 123.52 156.45 124.77 156.14C126.02 155.83 128.13 156.3 128.33 151.74C128.53 147.18 128.29 143.1 128.33 141.37C128.37 139.64 126.57 138.54 122.84 139.17C119.11 139.8 114.86 140.58 114.86 140.58L114.85 140.59Z" stroke="black" stroke-width="1.5" stroke-linecap="round" stroke-linejoin="round"/>
<path d="M136.22 136.82C134.54 137.03 133.5 137.34 133.71 140.9C133.92 144.46 134.34 148.96 134.34 150.54C134.34 152.12 133.61 154.03 136.85 153.86C140.1 153.69 147.6 152.12 148.87 151.7C150.15 151.28 151.41 151.07 151.3 147.51C151.19 143.95 150.67 139.24 150.46 137.77C150.25 136.3 149.52 134.84 146.06 135.36C142.6 135.88 136.21 136.83 136.21 136.83L136.22 136.82Z" stroke="black" stroke-width="1.5" stroke-linecap="round" stroke-linejoin="round"/>
<path d="M159.16 132.95C157.27 133.37 156.65 133.89 156.86 136.51C157.07 139.13 157.87 145.1 157.99 146.88C158.11 148.66 158.74 149.81 161.57 149.5C164.4 149.19 169.95 148.03 171 147.82C172.05 147.61 173.51 147.79 173.41 144.56C173.31 141.33 172.13 134.62 172.04 133.47C171.95 132.32 171.32 131.06 167.44 131.58C163.56 132.1 159.17 132.94 159.17 132.94L159.16 132.95Z" stroke="black" stroke-width="1.5" stroke-linecap="round" stroke-linejoin="round"/>
<path d="M184.3 128.97C182.62 129.18 181.26 129.49 181.47 132.74C181.68 135.99 182.1 140.8 182.1 142.48C182.1 144.16 182.31 145.73 185.35 145.41C188.39 145.09 196.24 143 197.6 142.58C198.96 142.16 200.21 142.12 200.53 139C200.85 135.88 200.74 130.64 200.53 128.97C200.32 127.3 199.56 125.83 196.12 126.35C192.68 126.87 184.3 128.97 184.3 128.97Z" stroke="black" stroke-width="1.5" stroke-linecap="round" stroke-linejoin="round"/>
<path d="M102.51 102.46C104.37 105.18 106.33 107.84 108.38 110.42" stroke="white" stroke-width="1.5" stroke-linecap="round" stroke-linejoin="round"/>
<path d="M114.29 100.17C113.86 103.44 113.29 106.69 112.58 109.91" stroke="white" stroke-width="1.5" stroke-linecap="round" stroke-linejoin="round"/>
<path d="M112.03 114.51C112.67 117.98 113.37 121.43 114.14 124.88" stroke="white" stroke-width="1.5" stroke-linecap="round" stroke-linejoin="round"/>
<path d="M119.36 99.14C120.98 98.88 122.59 98.57 124.18 98.21" stroke="white" stroke-width="1.5" stroke-linecap="round" stroke-linejoin="round"/>
<path d="M130.77 97.44C132.66 97.13 134.54 96.83 136.43 96.52" stroke="white" stroke-width="1.5" stroke-linecap="round" stroke-linejoin="round"/>
<path d="M118.18 102.89C118.61 104.95 119.03 107.01 119.46 109.07" stroke="white" stroke-width="1.5" stroke-linecap="round" stroke-linejoin="round"/>
<path d="M120.95 115.47L122.15 121.2" stroke="white" stroke-width="1.5" stroke-linecap="round" stroke-linejoin="round"/>
<path d="M130.53 100.9C130.97 102.94 131.34 105 131.64 107.07" stroke="white" stroke-width="1.5" stroke-linecap="round" stroke-linejoin="round"/>
<path d="M132.77 114.11L133.48 117.78C133.59 118.36 133.7 118.94 133.89 119.5C133.89 119.52 133.9 119.53 133.91 119.55" stroke="white" stroke-width="1.5" stroke-linecap="round" stroke-linejoin="round"/>
<path d="M141.64 96.5L143.38 103.82" stroke="white" stroke-width="1.5" stroke-linecap="round" stroke-linejoin="round"/>
<path d="M150.5 94.63C151.24 97 151.86 99.4 152.36 101.83" stroke="white" stroke-width="1.5" stroke-linecap="round" stroke-linejoin="round"/>
<path d="M145.88 112.94C146.52 115.31 147.15 117.68 147.79 120.06" stroke="white" stroke-width="1.5" stroke-linecap="round" stroke-linejoin="round"/>
<path d="M153.72 111.58C154.34 113.99 154.95 116.4 155.57 118.82" stroke="white" stroke-width="1.5" stroke-linecap="round" stroke-linejoin="round"/>
<path d="M160.37 92.93C160.24 95.76 160.11 98.59 159.98 101.41" stroke="white" stroke-width="1.5" stroke-linecap="round" stroke-linejoin="round"/>
<path d="M163.42 92.01C164.77 94.79 166.12 97.58 167.46 100.36" stroke="white" stroke-width="1.5" stroke-linecap="round" stroke-linejoin="round"/>
<path d="M170.97 91.84C171.04 91.87 170.99 91.71 170.93 91.75C170.87 91.79 170.89 91.89 170.93 91.95C171.94 94.21 172.89 96.5 173.77 98.82" stroke="white" stroke-width="1.5" stroke-linecap="round" stroke-linejoin="round"/>
<path d="M188.25 88.96C188.33 91.79 188.4 94.62 188.48 97.44" stroke="white" stroke-width="1.5" stroke-linecap="round" stroke-linejoin="round"/>
<path d="M161.57 105.74C163.2 105.49 164.81 105.14 166.38 104.67" stroke="white" stroke-width="1.5" stroke-linecap="round" stroke-linejoin="round"/>
<path d="M146.49 108.24L151.82 107.16" stroke="white" stroke-width="1.5" stroke-linecap="round" stroke-linejoin="round"/>
<path d="M134.66 110.27C136.23 109.93 137.79 109.6 139.36 109.26" stroke="white" stroke-width="1.5" stroke-linecap="round" stroke-linejoin="round"/>
<path d="M122.61 112.25C124.29 111.97 125.96 111.68 127.64 111.4" stroke="white" stroke-width="1.5" stroke-linecap="round" stroke-linejoin="round"/>
<path d="M124.38 124.99C126.15 124.67 127.9 124.27 129.63 123.79" stroke="white" stroke-width="1.5" stroke-linecap="round" stroke-linejoin="round"/>
<path d="M137.06 122.82C138.92 122.56 140.77 122.23 142.6 121.81" stroke="white" stroke-width="1.5" stroke-linecap="round" stroke-linejoin="round"/>
<path d="M161.07 109.38C160.89 112.56 160.66 115.73 160.37 118.91" stroke="white" stroke-width="1.5" stroke-linecap="round" stroke-linejoin="round"/>
<path d="M169.28 107.83C170.85 110.57 172.33 113.35 173.72 116.18" stroke="white" stroke-width="1.5" stroke-linecap="round" stroke-linejoin="round"/>
<path d="M176.2 105.84C177.81 108.66 179.37 111.51 180.89 114.39" stroke="white" stroke-width="1.5" stroke-linecap="round" stroke-linejoin="round"/>
<path d="M190.32 102.99C190.04 106.27 189.87 109.55 189.8 112.84" stroke="white" stroke-width="1.5" stroke-linecap="round" stroke-linejoin="round"/>
<path d="M183.35 105.09C183.86 107.78 184.38 110.47 184.89 113.16" stroke="white" stroke-width="1.5" stroke-linecap="round" stroke-linejoin="round"/>
<path d="M84.1902 236.79C57.6602 224.8 11.1502 198.72 5.49023 194.95C-0.169774 191.18 -1.78977 184.58 20.0802 184.27C37.0102 184.03 64.9302 183.03 76.6902 182.59C79.7202 182.48 82.2602 184.84 82.3702 187.87L84.1902 236.8V236.79Z" fill="black" stroke="black" stroke-width="1.5" stroke-linecap="round" stroke-linejoin="round"/>
<path d="M176.91 52.3C169.21 35.02 159.71 10.94 139.01 9.66001C120.78 8.53001 118.15 23.23 105.58 25.12C96.8299 26.43 82.4799 16.79 68.9699 23.23C55.4599 29.67 48.2299 44.6 61.2699 71.78L131.81 75.97L176.9 52.3H176.91Z" fill="#00D64F" stroke="black" stroke-width="1.5" stroke-linecap="round" stroke-linejoin="round"/>
<path d="M174.94 47.85C168.66 29.09 56.25 49.45 58.89 66.41L61.27 71.78L131.81 75.97L176.9 52.3L174.93 47.85H174.94Z" fill="white" stroke="black" stroke-width="1.5" stroke-linecap="round" stroke-linejoin="round"/>
<path d="M245.99 61.12C225.15 3.91 172.61 58.13 131.82 64.66C105.63 68.85 83.3998 66.24 57.2398 64.02C37.5498 62.35 18.6898 74.61 20.5398 102.36L245.99 61.11V61.12Z" fill="#00D64F" stroke="black" stroke-width="1.5" stroke-linecap="round" stroke-linejoin="round"/>
<path d="M131.82 75.97C172.61 69.44 228.75 13.54 245.99 61.12C257.2 92.05 224.67 138.71 145.65 156.41C106.1 165.27 22.0699 153.38 20.5399 102.37C20.0899 87.18 34.6599 73.67 57.2399 75.34C83.4199 77.28 105.63 80.17 131.82 75.98V75.97Z" fill="black" stroke="black" stroke-width="1.5" stroke-linecap="round" stroke-linejoin="round"/>
<path d="M190.66 79.22C193.07 78.84 195.49 79.9 196.83 81.94C225.86 126.07 204.12 149.71 200.32 177.99C198.12 194.33 203.53 210.67 206.05 221.16C206.78 224.21 204.69 227.22 201.57 227.6L98.1199 240.31C95.9999 240.57 93.8499 240.32 91.8399 239.59L84.1899 236.8C81.7799 235.92 79.8399 234.09 78.7899 231.75C62.3199 195.15 84.4099 165.6 84.3699 143.11C84.3499 131.45 76.9899 115.86 73.4099 108.96C72.3199 106.86 72.8299 104.28 74.6499 102.75L80.2899 98.01C81.5299 96.97 83.0299 96.28 84.6199 96.03L190.67 79.22H190.66Z" fill="white" stroke="black" stroke-width="1.5" stroke-linecap="round" stroke-linejoin="round"/>
<path d="M82.1699 97.23C82.1699 97.23 99.3599 124.48 99.3599 146.69C99.3599 169.94 75.1899 198.56 95.2999 240.35" stroke="black" stroke-width="1.5" stroke-linecap="round" stroke-linejoin="round"/>
<path d="M97.4402 99.12C97.4402 99.12 180.99 85.45 185.39 84.98C189.79 84.51 190.89 83.72 194.5 92.05C198.11 100.38 200.72 107.66 202.04 110.75C203.45 114.05 203.36 116.25 195.98 117.82C189.02 119.3 117.67 131.49 113.75 131.8C109.83 132.11 108.09 133.58 104.95 125.31C101.81 117.04 97.4102 105.72 96.6202 104.15C95.8302 102.58 94.2702 99.63 97.4402 99.12Z" fill="black" stroke="black" stroke-width="1.5" stroke-linecap="round" stroke-linejoin="round"/>
<path d="M110.03 168.56C107.25 168.87 105.89 168.72 105.05 172.23C104.21 175.74 102.96 181.34 102.69 182.55C102.43 183.75 102.38 185.9 105.83 185.59C109.28 185.28 117.4 183.6 118.35 183.39C119.3 183.18 120.76 183.39 121.6 179.46C122.44 175.53 123.59 170.35 123.54 169.25C123.49 168.15 122.96 166.74 118.77 167.26C114.58 167.78 110.02 168.57 110.02 168.57L110.03 168.56Z" stroke="black" stroke-width="1.5" stroke-linecap="round" stroke-linejoin="round"/>
<path d="M135.64 164.31C133.55 164.73 132.13 164.68 131.08 167.87C130.03 171.06 128.83 176.56 128.46 177.72C128.09 178.88 128.2 181.49 131.24 181.23C134.28 180.97 141.66 179.5 142.6 179.34C143.54 179.18 145.48 178.4 146.06 175.94C146.64 173.48 148.63 166.88 148.84 165.73C149.05 164.58 148.21 162.06 145.8 162.43C143.39 162.8 135.64 164.32 135.64 164.32V164.31Z" stroke="black" stroke-width="1.5" stroke-linecap="round" stroke-linejoin="round"/>
<path d="M160.26 160.12C158.13 160.59 157.48 160.12 156.7 163.31C155.92 166.5 154.61 172.74 154.29 173.84C153.97 174.94 153.09 177.14 156.28 176.67C159.47 176.2 165.45 175.2 166.96 174.78C168.48 174.36 169.74 173.94 170.15 171.32C170.56 168.7 171.83 162.52 171.98 161.06C172.13 159.6 171.98 157.66 168.79 158.23C165.6 158.81 160.25 160.12 160.25 160.12H160.26Z" stroke="black" stroke-width="1.5" stroke-linecap="round" stroke-linejoin="round"/>
<path d="M184.03 155.74C181.83 156.16 180.31 156.25 179.58 159.39C178.85 162.53 177.17 169.34 176.86 170.33C176.55 171.32 176.7 173.31 180.16 172.79C183.62 172.27 190.32 170.59 191.26 170.33C192.2 170.07 192.99 170.4 193.72 167.43C194.45 164.46 195.87 157.55 196.08 156.14C196.29 154.73 195.71 153.21 192.42 154.14C189.15 155.07 184.03 155.73 184.03 155.73V155.74Z" stroke="black" stroke-width="1.5" stroke-linecap="round" stroke-linejoin="round"/>
<path d="M103.3 193.46C100.88 193.85 99.5802 193.85 99.3602 197.31C99.1402 200.77 99.1902 204.85 99.3602 206.19C99.5302 207.53 100.24 208.78 103.7 208.31C107.16 207.84 113.99 207.13 115.01 206.9C116.03 206.67 117.6 206.51 117.84 203.6C118.08 200.69 117.91 196.23 117.92 195.12C117.93 192.84 116.98 191.74 113.52 192.06C110.06 192.37 105.04 193.19 103.31 193.47L103.3 193.46Z" stroke="black" stroke-width="1.5" stroke-linecap="round" stroke-linejoin="round"/>
<path d="M128.32 189.92C126.87 190.23 124.99 190 124.83 193.22C124.67 196.44 124.83 200.53 124.83 201.55C124.83 202.57 124.36 205.08 127.97 204.38C131.58 203.68 138.89 202.57 139.99 202.26C141.09 201.95 142.5 202.5 142.58 199.2C142.66 195.9 143.05 191.11 142.97 189.93C142.89 188.75 141.79 187.42 139.12 188.12C136.45 188.82 128.31 189.93 128.31 189.93L128.32 189.92Z" stroke="black" stroke-width="1.5" stroke-linecap="round" stroke-linejoin="round"/>
<path d="M153.93 185.29C152.01 185.6 150.83 185.76 150.59 188.51C150.35 191.26 150.2 196.44 150.12 197.39C150.04 198.34 149.65 199.98 153.11 199.43C156.57 198.88 162.85 197.7 164.19 197.39C165.53 197.08 166.55 196.84 166.86 193.78C167.17 190.72 167.41 186.63 167.49 185.3C167.57 183.97 166.23 182.79 163.64 183.34C161.05 183.89 153.94 185.3 153.94 185.3L153.93 185.29Z" stroke="black" stroke-width="1.5" stroke-linecap="round" stroke-linejoin="round"/>
<path d="M104.06 214.12C101.34 214.54 99.6601 215.69 100.18 218.94C100.7 222.19 101.66 226.48 102.07 227.84C102.48 229.2 103.32 231.19 107.09 230.56C110.86 229.93 116.98 228.78 117.95 228.47C118.92 228.16 121.12 227.63 120.49 224.8C119.86 221.97 118.6 215.27 118.4 214.12C118.2 212.97 117.14 212.13 113.79 212.65C110.44 213.17 104.05 214.12 104.05 214.12H104.06Z" stroke="black" stroke-width="1.5" stroke-linecap="round" stroke-linejoin="round"/>
<path d="M128.32 210.76C125.85 211.07 124.3 211.7 124.76 214.32C125.22 216.94 126 222.28 126.5 223.54C127 224.8 127.53 226.79 131.51 226.26C135.49 225.74 141.06 225.32 142.99 224.79C144.92 224.26 146.8 223.74 146.07 220.6C145.34 217.46 144.29 211.91 144.18 210.75C144.08 209.6 142.61 208.45 139.26 208.97C135.91 209.49 128.32 210.75 128.32 210.75V210.76Z" stroke="black" stroke-width="1.5" stroke-linecap="round" stroke-linejoin="round"/>
<path d="M153.93 206.26C151.2 206.57 150.78 207.73 151.09 210.03C151.4 212.33 152.16 217.78 152.46 219.04C152.76 220.3 153.6 222.5 156.53 222.18C159.46 221.86 166.17 220.82 167.48 220.61C168.79 220.4 170.88 220.4 170.15 216.63C169.42 212.86 168.68 207.41 168.37 206.26C168.06 205.11 166.69 203.99 162.98 204.5C159.26 205 153.93 206.26 153.93 206.26Z" stroke="black" stroke-width="1.5" stroke-linecap="round" stroke-linejoin="round"/>
<path d="M175.08 183.85C174.54 188.73 175.81 210.98 177.38 215.9C178.53 219.04 180.21 218.41 183.14 218.31C186.07 218.21 191.1 217.16 192.25 217.05C193.4 216.94 195.08 216.52 194.14 212.49C193.2 208.46 189.53 193.9 190.47 182.69C190.78 179.86 190.14 178.29 186.43 179.02C182.72 179.75 178.43 180.59 177.69 180.8C176.95 181.01 175.27 182.07 175.07 183.84L175.08 183.85Z" stroke="black" stroke-width="1.5" stroke-linecap="round" stroke-linejoin="round"/>
<path d="M114.85 140.59C112.65 140.75 111.39 141.22 110.77 145.77C110.14 150.33 110.14 153.47 109.83 155.04C109.52 156.61 110.62 158.86 114.86 158.13C119.1 157.4 123.52 156.45 124.77 156.14C126.02 155.83 128.13 156.3 128.33 151.74C128.53 147.18 128.29 143.1 128.33 141.37C128.37 139.64 126.57 138.54 122.84 139.17C119.11 139.8 114.86 140.58 114.86 140.58L114.85 140.59Z" stroke="black" stroke-width="1.5" stroke-linecap="round" stroke-linejoin="round"/>
<path d="M136.22 136.82C134.54 137.03 133.5 137.34 133.71 140.9C133.92 144.46 134.34 148.96 134.34 150.54C134.34 152.12 133.61 154.03 136.85 153.86C140.1 153.69 147.6 152.12 148.87 151.7C150.15 151.28 151.41 151.07 151.3 147.51C151.19 143.95 150.67 139.24 150.46 137.77C150.25 136.3 149.52 134.84 146.06 135.36C142.6 135.88 136.21 136.83 136.21 136.83L136.22 136.82Z" stroke="black" stroke-width="1.5" stroke-linecap="round" stroke-linejoin="round"/>
<path d="M159.16 132.95C157.27 133.37 156.65 133.89 156.86 136.51C157.07 139.13 157.87 145.1 157.99 146.88C158.11 148.66 158.74 149.81 161.57 149.5C164.4 149.19 169.95 148.03 171 147.82C172.05 147.61 173.51 147.79 173.41 144.56C173.31 141.33 172.13 134.62 172.04 133.47C171.95 132.32 171.32 131.06 167.44 131.58C163.56 132.1 159.17 132.94 159.17 132.94L159.16 132.95Z" stroke="black" stroke-width="1.5" stroke-linecap="round" stroke-linejoin="round"/>
<path d="M184.3 128.97C182.62 129.18 181.26 129.49 181.47 132.74C181.68 135.99 182.1 140.8 182.1 142.48C182.1 144.16 182.31 145.73 185.35 145.41C188.39 145.09 196.24 143 197.6 142.58C198.96 142.16 200.21 142.12 200.53 139C200.85 135.88 200.74 130.64 200.53 128.97C200.32 127.3 199.56 125.83 196.12 126.35C192.68 126.87 184.3 128.97 184.3 128.97Z" stroke="black" stroke-width="1.5" stroke-linecap="round" stroke-linejoin="round"/>
<path d="M102.51 102.46C104.37 105.18 106.33 107.84 108.38 110.42" stroke="white" stroke-width="1.5" stroke-linecap="round" stroke-linejoin="round"/>
<path d="M114.29 100.17C113.86 103.44 113.29 106.69 112.58 109.91" stroke="white" stroke-width="1.5" stroke-linecap="round" stroke-linejoin="round"/>
<path d="M112.03 114.51C112.67 117.98 113.37 121.43 114.14 124.88" stroke="white" stroke-width="1.5" stroke-linecap="round" stroke-linejoin="round"/>
<path d="M119.36 99.14C120.98 98.88 122.59 98.57 124.18 98.21" stroke="white" stroke-width="1.5" stroke-linecap="round" stroke-linejoin="round"/>
<path d="M130.77 97.44C132.66 97.13 134.54 96.83 136.43 96.52" stroke="white" stroke-width="1.5" stroke-linecap="round" stroke-linejoin="round"/>
<path d="M118.18 102.89C118.61 104.95 119.03 107.01 119.46 109.07" stroke="white" stroke-width="1.5" stroke-linecap="round" stroke-linejoin="round"/>
<path d="M120.95 115.47L122.15 121.2" stroke="white" stroke-width="1.5" stroke-linecap="round" stroke-linejoin="round"/>
<path d="M130.53 100.9C130.97 102.94 131.34 105 131.64 107.07" stroke="white" stroke-width="1.5" stroke-linecap="round" stroke-linejoin="round"/>
<path d="M132.77 114.11L133.48 117.78C133.59 118.36 133.7 118.94 133.89 119.5C133.89 119.52 133.9 119.53 133.91 119.55" stroke="white" stroke-width="1.5" stroke-linecap="round" stroke-linejoin="round"/>
<path d="M141.64 96.5L143.38 103.82" stroke="white" stroke-width="1.5" stroke-linecap="round" stroke-linejoin="round"/>
<path d="M150.5 94.63C151.24 97 151.86 99.4 152.36 101.83" stroke="white" stroke-width="1.5" stroke-linecap="round" stroke-linejoin="round"/>
<path d="M145.88 112.94C146.52 115.31 147.15 117.68 147.79 120.06" stroke="white" stroke-width="1.5" stroke-linecap="round" stroke-linejoin="round"/>
<path d="M153.72 111.58C154.34 113.99 154.95 116.4 155.57 118.82" stroke="white" stroke-width="1.5" stroke-linecap="round" stroke-linejoin="round"/>
<path d="M160.37 92.93C160.24 95.76 160.11 98.59 159.98 101.41" stroke="white" stroke-width="1.5" stroke-linecap="round" stroke-linejoin="round"/>
<path d="M163.42 92.01C164.77 94.79 166.12 97.58 167.46 100.36" stroke="white" stroke-width="1.5" stroke-linecap="round" stroke-linejoin="round"/>
<path d="M170.97 91.84C171.04 91.87 170.99 91.71 170.93 91.75C170.87 91.79 170.89 91.89 170.93 91.95C171.94 94.21 172.89 96.5 173.77 98.82" stroke="white" stroke-width="1.5" stroke-linecap="round" stroke-linejoin="round"/>
<path d="M188.25 88.96C188.33 91.79 188.4 94.62 188.48 97.44" stroke="white" stroke-width="1.5" stroke-linecap="round" stroke-linejoin="round"/>
<path d="M161.57 105.74C163.2 105.49 164.81 105.14 166.38 104.67" stroke="white" stroke-width="1.5" stroke-linecap="round" stroke-linejoin="round"/>
<path d="M146.49 108.24L151.82 107.16" stroke="white" stroke-width="1.5" stroke-linecap="round" stroke-linejoin="round"/>
<path d="M134.66 110.27C136.23 109.93 137.79 109.6 139.36 109.26" stroke="white" stroke-width="1.5" stroke-linecap="round" stroke-linejoin="round"/>
<path d="M122.61 112.25C124.29 111.97 125.96 111.68 127.64 111.4" stroke="white" stroke-width="1.5" stroke-linecap="round" stroke-linejoin="round"/>
<path d="M124.38 124.99C126.15 124.67 127.9 124.27 129.63 123.79" stroke="white" stroke-width="1.5" stroke-linecap="round" stroke-linejoin="round"/>
<path d="M137.06 122.82C138.92 122.56 140.77 122.23 142.6 121.81" stroke="white" stroke-width="1.5" stroke-linecap="round" stroke-linejoin="round"/>
<path d="M161.07 109.38C160.89 112.56 160.66 115.73 160.37 118.91" stroke="white" stroke-width="1.5" stroke-linecap="round" stroke-linejoin="round"/>
<path d="M169.28 107.83C170.85 110.57 172.33 113.35 173.72 116.18" stroke="white" stroke-width="1.5" stroke-linecap="round" stroke-linejoin="round"/>
<path d="M176.2 105.84C177.81 108.66 179.37 111.51 180.89 114.39" stroke="white" stroke-width="1.5" stroke-linecap="round" stroke-linejoin="round"/>
<path d="M190.32 102.99C190.04 106.27 189.87 109.55 189.8 112.84" stroke="white" stroke-width="1.5" stroke-linecap="round" stroke-linejoin="round"/>
<path d="M183.35 105.09C183.86 107.78 184.38 110.47 184.89 113.16" stroke="white" stroke-width="1.5" stroke-linecap="round" stroke-linejoin="round"/>
</g>
<defs>
<clipPath id="clip0_154_4897">
<rect width="250" height="250" fill="white"/>
</clipPath>
</defs>
</svg>
