<svg width="250" height="250" viewBox="0 0 250 250" fill="none" xmlns="http://www.w3.org/2000/svg">
<path d="M121.1 107.33L192.79 88.67C185.03 82.57 114.65 13.9 114.65 13.9C100.16 0.729992 73.0198 -5.29001 46.2598 12.96C18.9498 31.58 19.7398 63.06 42.8298 74.17L121.1 107.34" fill="#00D64F"/>
<path d="M121.1 107.33L192.79 88.67C185.03 82.57 114.65 13.9 114.65 13.9C100.16 0.729992 73.0198 -5.29001 46.2598 12.96C18.9498 31.58 19.7398 63.06 42.8298 74.17L121.1 107.34" stroke="black" stroke-width="1.5" stroke-linecap="round" stroke-linejoin="round"/>
<path d="M224.37 122.7C223.85 128.51 221.89 129.92 213.77 131.9C205.54 133.91 193.57 134.51 192.67 142.7C191.93 149.49 188.06 191.09 187.47 209.81C187.02 217.24 188.03 225.1 178.11 224.22C168.01 223.33 149.58 215.6 146.61 214.26C143.64 212.92 140.22 210.84 144.53 203.26C148.84 195.68 154.34 182.01 156.56 150.81C158.49 126.15 159.82 129.41 142.49 119.76C125.43 110.25 114.81 104.01 112.73 100.59C110.65 97.17 111.24 94.2 111.54 89.59C111.84 84.98 112.28 80.08 120.16 77.7C124.59 76.36 138.23 73.86 152.81 74.17C164.15 74.41 176.58 76.02 185.02 82.54C194.62 89.96 199.45 94.06 209.53 102.72C224.49 115.57 224.35 117.37 224.35 122.68L224.37 122.7Z" fill="white" stroke="black" stroke-width="1.5" stroke-linecap="round" stroke-linejoin="round"/>
<path d="M187.3 92.1899C187.33 86.1799 186.34 82.5199 179.59 79.2399C171.71 75.4599 161.92 74.3799 152.83 74.1899C138.25 73.8799 124.61 76.3799 120.18 77.7199C112.31 80.0999 111.86 84.9999 111.56 89.6099C111.26 94.2199 110.67 97.1899 112.75 100.61C113.17 101.3 113.94 102.1 115.03 103.02C121.22 105.74 129.17 108.79 150.41 108.79C183.86 108.79 187.26 102.49 187.31 92.1899H187.3Z" fill="black"/>
<path d="M180.6 89.44C156.3 74.68 132.65 81.92 119.27 90.22C118.97 90.41 118.92 90.84 119.17 91.09C137.06 108.98 168.5 103.39 180.72 90.3C180.96 90.04 180.9 89.62 180.6 89.44Z" fill="#00D64F" stroke="black" stroke-width="1.5" stroke-linecap="round" stroke-linejoin="round"/>
<path d="M148.7 80.99C141.64 80.99 138.2 86.53 138.2 92.38C138.2 98.23 142.85 102.42 149.94 102.42C157.03 102.42 160.09 96.64 160.09 91.29C160.09 85.94 157.9 80.99 148.7 80.99Z" fill="black" stroke="black" stroke-width="1.5" stroke-linecap="round" stroke-linejoin="round"/>
<path d="M154.86 128.4C153.52 132.04 152.29 135.74 151.16 142.8C151 144.21 151.59 145.85 155.08 150.15C158.57 154.45 159.02 156.46 162.66 156.46C166.3 156.46 168.23 151.48 168.23 147.02C168.23 142.56 168.39 134.32 166.22 131.28C163.62 127.64 161.84 125.15 158.57 125.15C157.08 125.15 156.04 125.15 154.86 128.38V128.4Z" fill="white" stroke="black" stroke-width="1.5" stroke-linecap="round" stroke-linejoin="round"/>
<path d="M146.62 214.26C149.59 215.6 168.01 223.32 178.12 224.22C180.88 224.46 182.79 224.03 184.13 223.12C185.47 221.81 185.64 220.26 178.02 215.6C170.39 210.94 159.2 202.92 150.39 203.02C145.93 203.02 143.32 204.29 142.54 208.65C142.21 212 144.53 213.31 146.62 214.26Z" fill="black" stroke="black" stroke-width="1.5" stroke-linecap="round" stroke-linejoin="round"/>
<path d="M154.86 128.4C153.57 131.89 152.38 135.46 151.29 141.98C151.2 142.96 151.42 145.23 155.38 145.23C162.14 145.23 161.51 140.1 161.69 135.27C161.69 127.66 162.13 126.43 160.88 125.66C160.18 125.34 159.43 125.16 158.57 125.16C157.08 125.16 156.04 125.16 154.86 128.39V128.4Z" fill="black" stroke="black" stroke-width="1.5" stroke-linecap="round" stroke-linejoin="round"/>
<path d="M42.8301 74.16C42.8301 74.16 77.9701 94.95 111.66 63.44C135.5 41.14 120.96 19.07 114.65 13.89" fill="#00D64F"/>
<path d="M42.8301 74.16C42.8301 74.16 77.9701 94.95 111.66 63.44C135.5 41.14 120.96 19.07 114.65 13.89" stroke="black" stroke-width="1.5" stroke-linecap="round" stroke-linejoin="round"/>
<path d="M125.43 233.63C116.21 233.98 113.43 236.4 114.62 240.37C115.81 244.33 122.36 247.67 135.42 248.29C149.44 248.96 199.58 248.51 196.83 239.57C195.12 234.01 136.66 233.21 125.43 233.63Z" fill="black" stroke="black" stroke-width="1.5" stroke-linecap="round" stroke-linejoin="round"/>
</svg>
